{
  "asset": {
    "generator": "Khronos glTF Blender I/O v3.6.27",
    "version": "2.0"
  },
  "scene": 0,
  "scenes": [
    {
      "name": "Scene",
      "nodes": [
        0
      ]
    }
  ],
  "nodes": [
    {
      "mesh": 0,
      "name": "rusted_wheel_rim_02"
    }
  ],
  "materials": [
    {
      "doubleSided": true,
      "name": "rusted_wheel_rim_02",
      "normalTexture": {
        "index": 0
      },
      "pbrMetallicRoughness": {
        "baseColorTexture": {
          "index": 1
        },
        "metallicFactor": 0,
        "metallicRoughnessTexture": {
          "index": 2
        }
      }
    }
  ],
  "meshes": [
    {
      "extras": {
        "targetNames": [
          "Key 1"
        ]
      },
      "name": "steel_wheel_02",
      "primitives": [
        {
          "attributes": {
            "POSITION": 0,
            "NORMAL": 1,
            "TEXCOORD_0": 2
          },
          "indices": 3,
          "material": 0,
          "targets": [
            {
              "POSITION": 4,
              "NORMAL": 5
            }
          ]
        }
      ],
      "weights": [
        1
      ]
    }
  ],
  "textures": [
    {
      "sampler": 0,
      "source": 0
    },
    {
      "sampler": 0,
      "source": 1
    },
    {
      "sampler": 0,
      "source": 2
    }
  ],
  "images": [
    {
      "mimeType": "image/jpeg",
      "name": "rusted_wheel_rim_02_nor_gl",
      "uri": "textures/rusted_wheel_rim_02_nor_gl_1k.jpg"
    },
    {
      "mimeType": "image/jpeg",
      "name": "rusted_wheel_rim_02_diff",
      "uri": "textures/rusted_wheel_rim_02_diff_1k.jpg"
    },
    {
      "mimeType": "image/jpeg",
      "name": "rusted_wheel_rim_02_rough",
      "uri": "textures/rusted_wheel_rim_02_arm_1k.jpg"
    }
  ],
  "accessors": [
    {
      "bufferView": 0,
      "componentType": 5126,
      "count": 9289,
      "max": [
        0.16912689805030823,
        0.16912691295146942,
        0.06172911450266838
      ],
      "min": [
        -0.16912689805030823,
        -0.16912688314914703,
        -0.05711545795202255
      ],
      "type": "VEC3"
    },
    {
      "bufferView": 1,
      "componentType": 5126,
      "count": 9289,
      "type": "VEC3"
    },
    {
      "bufferView": 2,
      "componentType": 5126,
      "count": 9289,
      "type": "VEC2"
    },
    {
      "bufferView": 3,
      "componentType": 5123,
      "count": 45768,
      "type": "SCALAR"
    },
    {
      "bufferView": 4,
      "componentType": 5126,
      "count": 9289,
      "max": [
        0.008361399173736572,
        0.006864188238978386,
        0.004086047410964966
      ],
      "min": [
        -0.005106419324874878,
        -0.005342110991477966,
        -0.006237838417291641
      ],
      "type": "VEC3"
    },
    {
      "bufferView": 5,
      "componentType": 5126,
      "count": 9289,
      "type": "VEC3"
    }
  ],
  "bufferViews": [
    {
      "buffer": 0,
      "byteLength": 111468,
      "byteOffset": 0,
      "target": 34962
    },
    {
      "buffer": 0,
      "byteLength": 111468,
      "byteOffset": 111468,
      "target": 34962
    },
    {
      "buffer": 0,
      "byteLength": 74312,
      "byteOffset": 222936,
      "target": 34962
    },
    {
      "buffer": 0,
      "byteLength": 91536,
      "byteOffset": 297248,
      "target": 34963
    },
    {
      "buffer": 0,
      "byteLength": 111468,
      "byteOffset": 388784,
      "target": 34962
    },
    {
      "buffer": 0,
      "byteLength": 111468,
      "byteOffset": 500252,
      "target": 34962
    }
  ],
  "samplers": [
    {
      "magFilter": 9729,
      "minFilter": 9987
    }
  ],
  "buffers": [
    {
      "byteLength": 611720,
      "uri": "rusted_wheel_rim_02.bin"
    }
  ]
}